<svg xmlns="http://www.w3.org/2000/svg" width="42" height="42" viewBox="0 0 42 42" fill="none">
                                            <path d="M8.3851 40.394C-2.78328 34.0299 -2.74884 7.70101 8.21193 1.51847C19.1727 -4.66408 41.9104 9.26554 41.9104 21.1042C41.9104 32.943 19.5535 46.7581 8.3851 40.394Z" fill="#FA994D"></path>
                                            <mask id="mask0_2426_252" style="mask-type:alpha" maskUnits="userSpaceOnUse" x="0" y="0" width="42" height="42">
                                                <path d="M8.3851 40.394C-2.78328 34.0299 -2.74884 7.70101 8.21193 1.51847C19.1727 -4.66408 41.9104 9.26554 41.9104 21.1042C41.9104 32.943 19.5535 46.7581 8.3851 40.394Z" fill="white"></path>
                                            </mask>
                                            <g mask="url(#mask0_2426_252)">
                                                <path d="M8.3851 41.0941C-2.78328 34.73 -2.74884 8.40108 8.21193 2.21854C19.1727 -3.964 41.9104 9.96561 41.9104 21.8043C41.9104 33.643 19.5535 47.4582 8.3851 41.0941Z" fill="url(#paint0_linear_2426_252)"></path>
                                            </g>
                                            <path d="M0.00170041 20.4615C0.0800106 28.5209 2.86334 36.5476 8.3851 39.694C19.4431 45.9953 41.4697 32.514 41.9039 20.7557C41.9082 20.8721 41.9104 20.9883 41.9104 21.1043C41.9104 32.943 19.5535 46.7581 8.3851 40.394C2.70346 37.1565 -0.0788676 28.752 0.00170041 20.4615Z" fill="#DB466C"></path>
                                            <path d="M7.87666 16.4021C10.4351 16.4021 12.1122 18.4601 12.1122 20.9297C12.1122 21.0755 12.1037 21.2127 12.0951 21.3499C12.0694 21.5985 11.9154 21.71 11.6844 21.71H5.30759C5.58877 23.1155 6.63234 23.8366 7.93656 23.8366C8.74944 23.8366 9.42543 23.4936 9.79336 23.0134C9.93027 22.8676 10.0586 22.7819 10.264 22.7819L11.3592 22.7733C11.6416 22.7733 11.7956 22.9448 11.6844 23.1849C11.0598 24.5826 9.65646 25.423 7.91089 25.423C5.1813 25.423 3.39294 23.485 3.39294 20.9125C3.39294 18.3743 5.19841 16.4021 7.87666 16.4021ZM5.30058 20.1837H10.253C10.0105 18.7233 8.96987 18.0914 7.86827 18.0914C6.48825 18.0914 5.55214 18.9007 5.30058 20.1837ZM21.7533 16.625C22.0014 16.625 22.1383 16.7622 22.1383 17.0109V24.8142C22.1383 25.0628 22.0014 25.2 21.7533 25.2H20.6751C20.427 25.2 20.2901 25.0628 20.2901 24.8142V23.9694C19.6425 24.8696 18.6359 25.423 17.2868 25.423C14.9594 25.423 13.0342 23.4593 13.0342 20.9125C13.0342 18.3658 14.9594 16.4021 17.2868 16.4021C18.6359 16.4021 19.6425 16.9555 20.2901 17.8557V17.0109C20.2901 16.7622 20.427 16.625 20.6751 16.625H21.7533ZM17.5862 23.6565C19.1264 23.6565 20.2901 22.5075 20.2901 20.9125C20.2901 19.3176 19.1264 18.1685 17.5862 18.1685C16.046 18.1685 14.8822 19.3176 14.8822 20.9125C14.8822 22.5075 16.046 23.6565 17.5862 23.6565ZM25.6956 19.0346C25.6956 20.7582 30.4445 19.5148 30.4445 22.7905C30.4445 24.4797 28.9728 25.423 27.0817 25.423C25.3276 25.423 23.9329 24.5826 23.7446 22.9534C23.719 22.6876 23.873 22.5504 24.1211 22.5504H25.1822C25.4132 22.5504 25.5073 22.679 25.5929 22.8934C25.7383 23.5108 26.3373 23.7594 27.0817 23.7594C27.9802 23.7594 28.5963 23.4422 28.5963 22.7905C28.5963 21.084 23.8473 22.3017 23.8473 19.0346C23.8473 17.3625 25.3191 16.4021 27.0817 16.4021C28.6818 16.4021 30.0595 17.2424 30.2477 18.8717C30.2734 19.1375 30.1194 19.2747 29.8712 19.2747H28.8102C28.5792 19.2747 28.485 19.1461 28.3995 18.9231C28.2626 18.3143 27.6893 18.0656 27.0817 18.0656C26.3116 18.0656 25.6956 18.3829 25.6956 19.0346ZM36.9025 16.9423C36.9709 16.7279 37.125 16.625 37.3389 16.625H38.5111C38.785 16.625 38.9219 16.788 38.8277 17.0624L34.9687 28.3213C34.9002 28.5357 34.7376 28.63 34.5237 28.63H33.3514C33.0776 28.63 32.9407 28.4671 33.0348 28.1927L34.0959 25.0971L30.9384 17.0709C30.8358 16.8051 30.9556 16.625 31.2379 16.625H32.4016C32.6156 16.625 32.761 16.7194 32.838 16.9252L35.02 22.5332L36.9025 16.9423Z" fill="white"></path>
                                            
                                            <defs>
                                                <linearGradient id="paint0_linear_2426_252" x1="20.9552" y1="42.7" x2="20.9552" y2="0.700073" gradientUnits="userSpaceOnUse">
                                                <stop stop-color="#FFA246"></stop>
                                                <stop offset="1" stop-color="#E14A53"></stop>
                                                </linearGradient>
                                            </defs>
                                        </svg>